<?xml version="1.0" standalone="no"?>
<!DOCTYPE svg PUBLIC "-//W3C//DTD SVG 20010904//EN"
 "http://www.w3.org/TR/2001/REC-SVG-20010904/DTD/svg10.dtd">
<svg version="1.0" xmlns="http://www.w3.org/2000/svg"
 width="2400.000000pt" height="2400.000000pt" viewBox="0 0 2400.000000 2400.000000"
 preserveAspectRatio="xMidYMid meet">

<g transform="translate(0.000000,2400.000000) scale(0.100000,-0.100000)"
fill="#000000" stroke="none">
<path d="M20005 21309 c-157 -26 -266 -104 -327 -236 -28 -58 -30 -70 -26
-151 3 -48 8 -94 12 -103 6 -14 -4 -17 -81 -21 -118 -7 -192 -36 -254 -99 -28
-29 -53 -67 -63 -95 -20 -59 -21 -165 -1 -229 8 -27 13 -50 12 -50 -1 -1 -33
-6 -70 -12 -206 -34 -337 -193 -337 -408 0 -122 35 -237 124 -415 55 -109 339
-614 361 -640 7 -8 46 -100 87 -205 178 -449 289 -871 334 -1270 53 -475 -51
-1095 -293 -1750 -204 -553 -547 -1245 -815 -1645 -216 -323 -600 -781 -839
-1004 l-84 -78 -7 69 c-36 336 -173 595 -426 806 -149 124 -360 248 -575 337
l-77 32 42 50 c167 195 216 299 225 478 4 79 1 121 -11 170 -79 311 -407 611
-806 738 -217 69 -355 87 -593 78 -95 -4 -193 -9 -219 -12 l-47 -6 24 46 c50
93 133 283 159 361 44 131 66 286 66 465 0 584 -213 1077 -584 1355 -125 93
-234 137 -376 150 -138 13 -326 -52 -474 -164 -38 -29 -72 -49 -77 -44 -4 4
-47 63 -96 129 -251 345 -574 661 -982 959 -577 422 -1168 645 -1780 674 -733
34 -1218 -196 -1326 -630 l-17 -66 -196 1 c-147 1 -225 -4 -307 -17 -347 -58
-731 -204 -974 -370 -101 -69 -258 -222 -319 -310 -57 -83 -120 -205 -152
-295 -47 -134 -62 -236 -67 -459 -4 -158 -9 -213 -18 -213 -6 0 -77 13 -156
29 -459 92 -895 68 -1241 -69 -417 -166 -769 -461 -998 -836 -117 -192 -177
-365 -188 -544 -13 -204 18 -364 108 -546 64 -130 146 -242 277 -375 l104
-106 -58 -23 c-368 -147 -712 -434 -907 -757 -73 -123 -144 -298 -186 -462 -7
-24 -15 -40 -20 -35 -5 5 -33 65 -63 134 -193 445 -279 932 -279 1580 0 562
54 972 203 1545 184 707 385 1289 604 1750 157 330 246 558 292 744 21 84 27
131 27 226 0 111 -2 125 -27 180 -35 75 -69 111 -132 141 -107 51 -270 19
-431 -82 -46 -29 -84 -51 -84 -48 0 2 10 42 22 87 15 55 22 112 23 173 0 81
-3 96 -30 149 -89 174 -279 186 -484 29 -35 -27 -71 -54 -80 -61 -14 -11 -16
-1 -16 100 0 135 -17 194 -77 262 -55 62 -107 87 -193 93 -127 8 -275 -48
-430 -162 -103 -75 -267 -242 -375 -381 -47 -60 -114 -138 -150 -175 -73 -74
-133 -183 -305 -555 -245 -528 -345 -803 -534 -1460 -92 -322 -158 -648 -231
-1135 -77 -523 -101 -856 -101 -1410 0 -868 76 -1513 241 -2049 126 -411 403
-1101 558 -1391 232 -435 610 -981 919 -1327 191 -213 582 -592 721 -698 1 -1
-12 -32 -28 -69 -58 -127 -81 -235 -87 -401 -4 -130 -1 -169 21 -295 41 -235
97 -405 183 -555 136 -236 286 -374 551 -505 133 -66 232 -101 356 -126 99
-19 90 -6 106 -159 34 -327 140 -574 341 -791 287 -309 645 -520 1164 -687
443 -142 942 -202 1325 -158 41 4 76 7 78 5 2 -1 -14 -62 -37 -136 -155 -512
-169 -704 -68 -878 76 -131 283 -296 538 -429 364 -191 1182 -436 1884 -565
350 -64 556 -89 825 -101 127 -6 170 -13 345 -56 194 -47 407 -81 600 -94 175
-11 343 -26 595 -52 223 -22 281 -24 460 -19 113 4 232 11 265 17 33 5 148 13
255 17 179 8 201 11 252 34 68 32 129 90 163 159 74 145 201 542 456 1428 33
113 59 210 59 217 0 23 14 23 105 -2 375 -101 878 -142 1431 -115 481 23 726
76 1022 221 419 206 734 508 908 875 180 380 194 729 40 1033 l-26 51 114 113
c258 256 395 583 396 948 0 205 -65 579 -140 794 -11 33 -20 64 -20 70 0 7 28
30 63 53 34 23 141 106 237 184 96 78 258 210 360 293 324 263 808 693 1036
920 584 584 851 982 1180 1762 293 698 397 991 589 1674 169 599 239 902 289
1250 93 647 124 1616 71 2220 -75 850 -327 1756 -627 2253 -135 222 -318 437
-374 437 -18 0 -53 26 -122 93 -161 154 -256 230 -506 405 -248 174 -516 262
-701 231z m215 -308 c162 -46 363 -175 526 -336 95 -94 230 -261 298 -369 l19
-30 -39 -34 c-96 -84 -335 -281 -519 -427 -294 -232 -628 -522 -828 -717 -44
-43 -81 -77 -82 -75 -1 1 -67 117 -147 257 -232 408 -288 532 -288 641 0 64
38 110 91 112 64 2 126 -40 281 -191 163 -157 213 -189 276 -177 76 14 122 70
122 148 0 53 -32 109 -159 276 -116 153 -177 248 -207 322 -38 93 -32 109 41
109 101 0 229 -53 361 -150 43 -32 96 -70 116 -85 102 -74 238 -14 238 105 0
23 -5 51 -12 63 -6 12 -75 85 -153 162 -121 119 -148 151 -179 214 -37 76 -45
126 -23 153 39 50 152 62 267 29z m-16476 -881 c-2 -117 -78 -378 -185 -630
-17 -41 -31 -93 -32 -115 -1 -84 59 -145 143 -145 57 0 92 24 157 105 107 135
311 374 368 431 58 58 140 124 155 124 23 0 -79 -301 -189 -558 -72 -167 -84
-214 -70 -264 11 -43 65 -93 109 -103 74 -16 91 -5 300 199 206 201 289 270
380 316 86 43 97 45 104 16 17 -68 -32 -268 -119 -486 -64 -161 -260 -583
-272 -587 -5 -2 -35 19 -67 46 -186 157 -593 411 -845 526 -255 117 -491 206
-686 259 -65 19 -121 38 -122 43 -4 11 88 158 167 269 248 347 446 544 615
613 83 34 90 29 89 -59z m7426 -751 c351 -25 652 -104 1000 -263 239 -109 453
-240 705 -431 199 -150 295 -234 476 -415 177 -176 286 -302 396 -458 117
-167 170 -212 248 -212 45 0 73 15 166 84 234 176 413 190 616 47 168 -118
314 -306 394 -506 145 -363 174 -807 73 -1114 -14 -42 -75 -179 -137 -306 -96
-200 -111 -237 -112 -282 0 -62 27 -97 88 -114 33 -9 51 -6 120 15 265 82 633
62 920 -51 313 -123 566 -370 605 -592 13 -71 -1 -174 -32 -245 -28 -63 -92
-150 -182 -246 -81 -88 -94 -108 -94 -153 0 -84 30 -109 245 -202 273 -118
444 -226 590 -370 196 -193 284 -408 286 -701 0 -108 -2 -128 -18 -146 -39
-43 -400 -325 -407 -317 -1 2 -8 83 -14 179 -22 326 -96 566 -240 778 -124
183 -535 628 -729 789 -62 51 -113 95 -113 97 0 2 22 50 49 107 70 149 93 222
99 314 9 171 -69 298 -258 420 -82 53 -146 79 -257 107 -81 21 -109 23 -351
21 -234 -1 -266 -4 -283 -19 -25 -22 -24 -66 1 -89 18 -16 33 -18 108 -14 48
2 168 3 267 3 164 -1 188 -4 268 -28 107 -32 154 -55 228 -112 115 -88 158
-160 159 -260 0 -77 -24 -155 -95 -309 -30 -66 -55 -134 -55 -151 0 -42 22
-68 143 -167 173 -143 524 -513 673 -710 146 -194 227 -401 259 -667 15 -117
18 -312 6 -363 -5 -24 -35 -47 -181 -139 -301 -188 -749 -432 -765 -416 -4 3
-1 41 4 84 29 216 33 551 10 804 -35 382 -196 904 -347 1126 -54 80 -167 200
-274 290 -60 51 -90 84 -93 102 -28 152 -66 259 -134 377 -82 143 -362 485
-411 500 -46 15 -84 -40 -59 -87 6 -12 42 -55 78 -93 92 -98 240 -291 291
-381 59 -104 87 -176 109 -288 23 -111 38 -136 124 -204 92 -74 231 -221 283
-302 55 -85 115 -225 177 -415 75 -226 113 -399 138 -625 19 -169 16 -573 -5
-750 -28 -237 -2 -201 -221 -298 -589 -260 -1109 -441 -1599 -556 -237 -56
-564 -121 -572 -113 -14 14 -35 128 -40 222 -5 87 -2 113 20 199 14 55 46 140
70 190 101 207 319 492 511 664 67 61 72 63 110 57 256 -40 422 -25 591 54
201 94 363 258 471 476 69 138 99 281 90 425 -19 280 -162 560 -376 732 -69
55 -198 128 -227 128 -21 0 -172 193 -209 265 -84 167 -87 395 -8 718 25 103
25 108 8 127 -10 11 -27 20 -37 20 -52 0 -69 -32 -107 -210 -75 -349 -49 -585
85 -786 l62 -92 -62 -7 c-33 -4 -85 -14 -114 -21 -48 -13 -55 -12 -80 4 -15
11 -46 32 -70 47 -52 34 -101 99 -144 191 -30 64 -33 77 -33 169 0 122 19 199
86 347 29 64 49 122 49 143 0 90 -56 125 -198 125 -174 0 -362 68 -445 160
-77 86 -92 127 -92 255 0 95 4 121 28 190 34 94 31 132 -14 169 l-30 26 -282
0 c-296 -1 -434 11 -592 49 -200 49 -312 100 -401 183 -52 49 -106 131 -93
142 2 2 51 27 108 56 268 137 441 321 441 469 0 84 -17 128 -67 182 -139 148
-404 108 -571 -87 -92 -107 -142 -240 -151 -399 l-6 -100 -93 -27 c-358 -105
-931 -155 -1183 -103 -167 35 -243 81 -337 206 -131 174 -138 180 -316 239
-249 83 -640 -99 -770 -359 -58 -116 -104 -318 -91 -403 l6 -43 -77 -28 c-170
-60 -299 -161 -399 -312 -99 -148 -143 -280 -152 -456 -9 -179 30 -326 121
-452 50 -70 162 -182 219 -219 l38 -26 -58 -32 c-133 -75 -290 -223 -379 -356
-202 -304 -239 -692 -95 -999 106 -227 274 -407 577 -618 45 -31 86 -63 93
-70 15 -18 -17 -41 -160 -112 -144 -72 -227 -127 -326 -217 -248 -225 -345
-414 -344 -676 1 -105 11 -185 32 -250 6 -18 9 -35 6 -38 -10 -10 -545 148
-842 250 -413 140 -664 248 -980 422 -198 109 -195 106 -195 164 0 160 80 381
209 576 157 238 444 491 696 615 136 67 213 89 417 120 180 27 227 49 228 107
0 23 -52 82 -72 82 -21 0 -272 120 -344 165 -151 94 -258 226 -299 369 -24 82
-16 264 15 356 32 94 83 199 139 282 76 114 75 113 150 77 80 -38 199 -69 266
-69 104 0 189 68 216 172 12 42 11 53 -7 95 -35 86 -144 136 -256 118 -65 -11
-192 -62 -248 -101 -27 -19 -54 -34 -60 -34 -21 0 -168 156 -193 205 -88 175
-81 374 19 565 133 253 474 527 959 769 258 128 438 195 785 291 150 41 222
74 265 121 37 41 50 88 41 146 -3 21 -9 68 -12 105 -15 158 74 270 301 379
170 81 303 117 533 144 383 45 686 -8 1185 -206 53 -22 110 -39 125 -39 38 0
68 30 97 97 54 121 206 288 328 362 210 125 489 147 748 60 235 -78 467 -241
635 -445 45 -55 100 -113 122 -128 46 -31 148 -75 176 -76 18 0 18 -6 10 -122
-24 -329 7 -494 126 -671 85 -126 159 -187 434 -359 l76 -47 0 -82 c0 -211 85
-351 267 -441 83 -41 90 -43 181 -43 90 0 95 1 118 28 28 33 31 63 7 89 -20
22 -39 23 -86 3 -66 -27 -194 21 -278 105 -62 62 -89 143 -89 272 0 132 -3
136 -182 248 -83 52 -175 113 -203 135 -126 98 -222 258 -250 419 -18 107 -19
144 -3 306 19 212 2 257 -108 278 -83 17 -139 55 -221 153 -292 349 -672 549
-1043 549 -308 0 -542 -109 -746 -348 -34 -40 -78 -104 -98 -142 -21 -39 -39
-70 -42 -70 -3 0 -85 30 -182 66 -282 106 -426 143 -652 170 -313 36 -673 -9
-947 -118 -253 -101 -397 -228 -448 -395 -18 -59 -19 -120 -3 -213 12 -69 12
-71 -13 -95 -30 -30 -88 -51 -301 -109 -281 -76 -508 -167 -788 -313 -438
-229 -755 -486 -904 -733 -189 -312 -148 -676 100 -898 35 -31 64 -60 64 -64
0 -4 -23 -37 -50 -73 -64 -85 -153 -267 -181 -370 -29 -104 -33 -322 -7 -401
67 -208 213 -364 462 -491 92 -46 125 -68 115 -74 -8 -5 -24 -9 -37 -9 -36 0
-171 -29 -242 -52 -338 -108 -757 -459 -959 -804 -91 -156 -156 -338 -176
-496 -3 -27 -8 -48 -10 -48 -8 0 -235 146 -350 225 -154 106 -252 182 -375
289 l-100 87 0 73 c0 186 44 454 104 638 126 385 351 660 776 947 120 81 343
215 492 295 94 50 128 84 128 125 0 36 -46 104 -115 171 -31 30 -63 67 -71 83
-8 15 -35 37 -61 49 -94 44 -164 135 -282 364 -39 76 -41 86 -41 165 0 154 50
282 169 436 160 206 383 380 646 503 105 50 437 188 590 247 104 40 525 165
765 228 250 65 281 75 307 101 29 29 29 51 -4 149 -22 68 -26 97 -26 200 0
102 4 133 27 210 40 131 89 219 166 295 133 133 319 190 621 190 224 0 413
-28 844 -125 561 -127 651 -139 695 -100 12 11 46 67 75 125 172 343 391 546
652 604 112 25 299 21 448 -9 342 -69 775 -293 1172 -607 160 -126 346 -327
493 -531 68 -95 84 -104 136 -82 94 40 308 25 435 -31 186 -82 297 -190 396
-389 87 -173 131 -364 139 -610 7 -191 -4 -275 -57 -443 -28 -87 -29 -95 -14
-118 19 -29 64 -32 88 -6 17 18 57 138 82 242 37 157 29 447 -20 666 -107 479
-386 772 -789 826 -74 10 -197 6 -256 -8 -22 -5 -31 2 -60 43 -19 26 -70 93
-114 148 -186 231 -354 380 -656 582 -348 232 -658 374 -960 439 -119 26 -417
27 -508 1 -292 -80 -523 -293 -707 -650 -32 -62 -56 -97 -66 -97 -23 0 -264
50 -570 119 -327 73 -456 97 -635 116 -342 36 -605 4 -793 -96 -128 -68 -206
-148 -282 -285 -19 -33 -42 -73 -53 -88 -24 -35 -56 -225 -55 -336 0 -56 8
-116 23 -175 13 -49 22 -92 20 -94 -2 -2 -101 -29 -221 -61 -238 -63 -579
-162 -713 -208 -135 -46 -522 -207 -678 -282 -318 -153 -567 -359 -727 -600
-106 -159 -145 -277 -145 -439 0 -250 114 -440 405 -671 61 -48 120 -102 133
-119 l22 -30 -22 -15 c-13 -7 -75 -42 -138 -76 -352 -192 -659 -415 -851 -618
-248 -262 -409 -628 -454 -1034 -9 -79 -19 -161 -23 -183 l-7 -39 -79 89
c-100 115 -170 207 -240 319 -64 103 -68 125 -40 287 60 354 201 622 450 859
167 159 333 266 549 355 122 50 169 79 194 119 23 37 28 104 10 139 -7 12 -73
85 -149 162 -214 219 -289 340 -346 555 -23 86 -23 270 0 364 94 392 471 819
910 1031 250 121 461 167 771 169 206 1 299 -9 525 -56 184 -38 263 -40 312
-10 63 39 67 61 68 308 0 153 4 247 15 309 57 325 235 568 551 749 175 100
484 211 702 252 150 28 397 42 492 27 l54 -8 23 -90 c76 -296 289 -521 525
-555 66 -10 181 3 235 25 50 21 111 80 134 130 29 63 26 156 -10 230 -84 176
-290 302 -688 421 -31 9 4 131 63 219 53 80 125 139 239 195 119 59 242 96
385 115 195 27 275 29 480 14z m-1074 -779 c123 -42 258 -110 329 -167 70 -57
113 -129 96 -162 -18 -33 -51 -45 -126 -45 -56 0 -80 6 -123 27 -63 33 -156
124 -195 190 -24 40 -77 167 -77 182 0 7 -1 8 96 -25z m2296 -1717 c26 -23 22
-71 -8 -115 -27 -38 -121 -120 -204 -175 -43 -29 -144 -83 -155 -83 -13 0 -2
81 19 141 53 152 161 249 275 249 37 0 60 -5 73 -17z m-2509 -263 c15 -7 27
-21 27 -32 0 -47 124 -222 221 -312 49 -45 69 -71 69 -88 0 -24 -111 -195
-239 -370 l-64 -87 -64 58 c-69 64 -163 118 -261 150 -94 30 -251 46 -342 34
-54 -7 -77 -7 -83 1 -12 17 0 132 23 214 42 149 111 249 236 338 115 83 220
115 354 110 52 -1 107 -9 123 -16z m2011 -442 c96 -197 316 -329 666 -402 158
-33 301 -46 518 -46 l184 0 -6 -27 c-15 -66 -18 -214 -7 -275 31 -157 151
-315 296 -390 85 -44 211 -83 317 -100 66 -10 78 -14 72 -27 -52 -115 -94
-300 -94 -414 1 -177 130 -418 273 -507 39 -25 59 -45 67 -67 14 -40 54 -73
88 -73 13 0 48 13 77 30 79 45 172 58 275 37 102 -20 167 -51 247 -119 87 -73
156 -164 207 -272 57 -118 76 -188 83 -311 7 -126 -11 -205 -72 -328 -57 -114
-97 -168 -183 -248 -82 -76 -154 -121 -254 -157 -144 -51 -423 -30 -630 48
-71 26 -132 91 -153 163 -8 28 -15 56 -15 63 0 28 -52 72 -109 94 -51 19 -65
20 -94 11 -46 -16 -65 -39 -129 -161 -154 -294 -372 -562 -569 -697 -495 -340
-1363 -397 -2109 -138 -388 134 -699 309 -911 512 -327 314 -492 653 -560
1153 -22 157 -17 453 9 591 89 476 275 849 743 1494 80 110 169 236 199 280
30 44 69 99 87 123 18 24 33 54 33 68 0 13 2 24 4 24 2 0 27 -5 57 -10 307
-58 928 -2 1314 119 48 15 51 13 79 -41z m-2447 -413 c100 -19 195 -66 255
-126 70 -70 70 -81 0 -186 -84 -126 -202 -315 -253 -408 l-44 -80 -7 65 c-12
107 -38 452 -38 501 0 25 -5 50 -12 57 -17 17 -48 15 -70 -5 -23 -20 -23 -85
-3 -313 8 -91 18 -244 21 -340 l6 -175 -31 -90 c-17 -49 -36 -94 -41 -99 -28
-28 -240 2 -340 47 -60 28 -200 168 -234 234 -109 216 -56 519 125 716 95 105
200 159 379 197 106 23 186 24 287 5z m-1859 -925 c36 -22 39 -37 17 -80 -20
-38 -43 -50 -100 -50 -45 0 -191 42 -209 60 -10 10 118 74 164 83 56 10 97 6
128 -13z m1581 -486 c1 -1 -7 -45 -18 -96 -71 -305 -64 -659 20 -1043 38 -178
136 -422 235 -588 97 -161 277 -374 431 -508 l62 -54 -34 -70 c-93 -192 -56
-377 117 -586 21 -26 38 -49 38 -52 0 -3 -33 -23 -72 -44 -95 -49 -199 -150
-235 -230 -35 -74 -41 -160 -18 -238 9 -31 14 -59 12 -61 -7 -7 -329 36 -572
77 -255 42 -456 81 -675 131 -74 17 -146 33 -159 36 -59 13 -114 259 -92 416
24 170 93 298 241 446 116 117 200 176 371 265 207 107 256 165 216 251 -17
34 -36 50 -222 187 -146 107 -235 186 -304 271 -171 209 -241 403 -228 636 16
288 145 536 375 721 89 72 194 125 272 137 47 8 228 5 239 -4z m4561 -1833 c0
-5 22 -34 49 -64 49 -53 129 -103 205 -127 l38 -12 -90 -92 c-255 -258 -469
-590 -533 -826 -30 -111 -32 -288 -5 -403 10 -43 16 -80 14 -82 -9 -8 -323
-54 -329 -48 -15 16 -189 744 -189 792 0 15 19 30 72 58 149 78 330 233 474
406 69 82 221 303 258 375 16 30 36 43 36 23z m-3619 -597 c256 -154 687 -328
961 -388 27 -6 27 -7 12 -41 -21 -51 -18 -78 25 -247 50 -194 111 -468 111
-498 l0 -23 -487 6 c-492 6 -819 20 -861 37 -13 6 -33 32 -47 62 -71 153 11
296 232 405 144 71 148 98 33 228 -120 135 -175 278 -150 388 10 48 48 137 57
137 3 0 54 -30 114 -66z m2504 -386 c2 -13 16 -75 30 -138 15 -63 51 -218 82
-343 30 -126 52 -231 49 -234 -27 -27 -1224 -109 -1247 -86 -5 5 -22 76 -39
158 -17 83 -49 224 -72 315 -22 91 -47 189 -54 219 l-13 54 57 -7 c396 -43
778 -23 1077 58 115 31 124 31 130 4z m-8198 -2044 c92 -70 252 -182 355 -251
169 -112 188 -127 192 -156 3 -18 10 -68 16 -112 25 -167 110 -376 206 -504
103 -138 229 -206 501 -271 68 -16 136 -36 153 -45 63 -33 74 -78 95 -410 19
-283 34 -408 70 -569 59 -264 167 -496 279 -605 20 -19 36 -39 36 -43 0 -11
-145 63 -251 128 -131 81 -253 180 -364 295 -208 215 -293 400 -329 719 -21
178 -30 207 -80 256 -36 36 -51 44 -121 58 -207 43 -399 122 -550 226 -234
162 -388 447 -450 830 -17 110 -20 295 -4 372 13 69 60 208 70 208 4 0 83 -57
176 -126z m13932 -161 c78 -262 115 -547 100 -758 -19 -274 -164 -564 -369
-735 l-49 -41 -70 59 c-175 151 -372 220 -550 191 -237 -37 -367 -238 -279
-430 53 -114 159 -184 335 -221 184 -38 342 -17 468 63 60 38 60 38 105 -98
72 -218 44 -458 -84 -729 -154 -324 -433 -594 -801 -778 -318 -158 -613 -207
-1247 -207 -363 1 -547 12 -760 47 -160 26 -376 78 -392 94 -9 9 75 371 95
411 7 13 26 17 96 18 349 7 722 144 1018 376 249 195 412 431 456 663 15 82 6
243 -21 342 -11 41 -28 106 -39 145 -10 38 -17 75 -14 81 2 6 53 30 113 53
137 52 300 136 410 209 104 70 315 276 399 391 102 139 209 336 259 478 20 57
34 81 52 90 14 7 77 37 140 67 63 30 219 115 345 189 127 74 235 135 241 136
6 1 26 -47 43 -106z m-13094 -388 c154 -89 541 -282 730 -364 93 -41 282 -117
419 -170 l251 -97 40 -99 c77 -190 159 -320 261 -415 92 -85 201 -149 300
-175 32 -8 58 -16 60 -18 2 -1 -26 -59 -61 -129 -36 -69 -79 -168 -97 -219
-31 -89 -32 -102 -32 -234 0 -125 3 -149 27 -220 63 -187 240 -435 412 -575
l40 -32 -95 6 c-190 12 -497 69 -665 122 -221 70 -453 258 -575 465 -124 209
-189 506 -220 1004 -14 216 -25 297 -51 354 -41 94 -76 114 -281 166 -236 58
-329 103 -409 194 -51 57 -110 156 -145 241 -27 66 -74 239 -74 273 0 18 2 18
33 -1 17 -11 77 -46 132 -77z m12105 -117 c-105 -208 -197 -336 -352 -490
-147 -146 -333 -264 -545 -347 -172 -67 -185 -74 -204 -106 -24 -38 -24 -64 1
-156 50 -183 60 -229 66 -309 10 -146 -39 -302 -145 -458 -119 -176 -358 -370
-593 -482 -188 -89 -405 -145 -606 -157 l-103 -6 5 24 c3 13 31 125 62 249 30
124 73 305 94 403 29 133 45 186 62 207 356 436 598 782 728 1039 21 42 45 82
52 89 8 6 72 33 144 61 271 104 849 342 1019 421 39 17 115 51 170 74 55 24
123 54 150 69 38 19 51 22 53 12 2 -8 -25 -69 -58 -137z m-1665 -625 c-106
-194 -544 -813 -575 -813 -4 0 -1 34 6 75 7 41 27 191 44 333 17 141 33 267
35 279 4 18 30 30 157 72 84 28 200 69 258 90 58 21 107 37 109 35 2 -1 -13
-34 -34 -71z m-8774 22 c336 -108 441 -138 789 -226 129 -33 237 -65 241 -71
4 -7 22 -52 40 -101 41 -117 133 -298 195 -384 63 -89 174 -200 247 -248 31
-21 57 -43 57 -50 0 -7 -25 -79 -56 -161 -84 -223 -170 -463 -221 -614 -25
-74 -47 -137 -49 -139 -6 -7 -209 -31 -265 -31 -45 0 -71 7 -126 35 -207 104
-466 426 -517 645 -20 82 -20 207 -1 288 19 79 94 248 168 377 71 122 74 133
46 169 -21 26 -24 27 -84 21 -188 -21 -417 161 -540 429 -38 81 -42 101 -22
93 7 -3 51 -17 98 -32z m1412 -369 c122 -24 266 -52 320 -61 53 -10 97 -20 97
-24 0 -4 -25 -65 -56 -137 -31 -71 -76 -181 -102 -244 -25 -63 -47 -117 -49
-119 -8 -10 -118 77 -174 137 -71 75 -129 162 -187 278 -34 68 -92 200 -92
211 0 6 26 2 243 -41z m9265 -30 c89 -24 263 -140 247 -165 -16 -26 -109 -63
-174 -68 -77 -6 -213 17 -272 47 -68 35 -95 91 -68 142 28 52 157 73 267 44z"/>
<path d="M11247 15816 c-252 -104 -678 -654 -814 -1051 -21 -63 -27 -99 -28
-170 0 -107 18 -154 75 -191 43 -29 137 -36 191 -14 170 68 431 339 630 655
84 135 185 346 210 442 30 115 29 207 -1 261 -50 90 -149 115 -263 68z m53
-240 c0 -3 -12 -38 -26 -78 -56 -155 -161 -338 -305 -528 -120 -158 -306 -346
-326 -327 -3 4 4 35 17 69 95 263 338 617 554 807 61 54 86 70 86 57z"/>
<path d="M13048 15146 c-189 -51 -479 -381 -653 -741 -126 -260 -164 -457
-111 -572 43 -92 133 -130 238 -99 191 55 461 360 644 726 143 286 179 492
108 607 -46 74 -133 105 -226 79z m32 -255 c0 -39 -69 -230 -120 -332 -61
-122 -138 -242 -225 -354 -67 -86 -185 -204 -224 -224 l-24 -13 8 48 c18 119
121 340 253 539 62 94 117 161 198 243 61 61 116 112 123 112 6 0 11 -9 11
-19z"/>
<path d="M11817 14970 c-45 -14 -89 -52 -187 -166 -239 -277 -460 -622 -613
-957 -76 -168 -85 -210 -58 -272 22 -51 55 -75 110 -82 96 -13 195 80 369 347
63 96 189 287 281 425 91 137 192 301 224 364 68 137 72 172 28 260 -25 48
-37 61 -71 75 -45 18 -44 18 -83 6z"/>
<path d="M14535 13486 c-224 -58 -613 -273 -623 -344 -5 -30 14 -52 44 -52 12
0 58 25 100 55 140 101 440 235 579 260 68 12 95 54 59 89 -21 21 -52 20 -159
-8z"/>
<path d="M12035 13485 c-93 -23 -268 -116 -400 -212 -233 -169 -420 -293 -441
-293 -11 0 -41 14 -65 32 -108 78 -394 196 -529 217 -382 62 -654 -129 -564
-396 61 -179 284 -386 569 -527 216 -107 354 -144 570 -153 222 -8 366 24 595
133 142 68 217 115 343 218 333 269 458 690 267 899 -29 32 -68 62 -93 72 -58
23 -178 28 -252 10z m160 -221 c46 -18 59 -129 26 -233 -11 -34 -38 -93 -60
-131 -41 -68 -135 -180 -144 -170 -10 12 -108 441 -102 450 9 15 60 40 135 66
65 24 114 29 145 18z m-367 -402 c29 -120 52 -226 52 -234 0 -9 -28 -34 -62
-56 -64 -41 -246 -132 -266 -132 -6 0 -18 33 -26 73 -26 122 -55 250 -68 301
-10 41 -10 49 3 56 26 15 263 182 279 196 8 8 19 14 25 14 7 0 34 -96 63 -218z
m-1331 63 c31 -119 83 -339 79 -342 -5 -6 -141 99 -195 150 -62 60 -131 161
-131 191 0 12 4 27 9 35 14 22 112 51 166 48 l50 -2 22 -80z m261 19 c48 -19
93 -41 100 -48 23 -22 141 -470 128 -484 -8 -8 -126 26 -183 52 -47 22 -50 26
-60 77 -12 58 -90 392 -99 422 -8 26 16 22 114 -19z m557 -184 c3 -5 23 -88
44 -185 25 -117 34 -178 27 -182 -6 -4 -60 -9 -121 -11 l-111 -4 -29 128 c-15
71 -36 157 -45 192 l-18 64 27 -8 c32 -10 137 -6 177 6 39 11 42 11 49 0z"/>
</g>
</svg>
